<svg width="24" height="24" viewBox="0 0 24 24" fill="none" xmlns="http://www.w3.org/2000/svg">
<path d="M12 11.6C11.2422 11.6 10.5155 11.3893 9.9797 11.0142C9.44388 10.6391 9.14286 10.1304 9.14286 9.6C9.14286 9.06957 9.44388 8.56086 9.9797 8.18579C10.5155 7.81071 11.2422 7.6 12 7.6C12.7578 7.6 13.4845 7.81071 14.0203 8.18579C14.5561 8.56086 14.8571 9.06957 14.8571 9.6C14.8571 9.86264 14.7832 10.1227 14.6397 10.3654C14.4961 10.608 14.2856 10.8285 14.0203 11.0142C13.755 11.1999 13.44 11.3472 13.0934 11.4478C12.7467 11.5483 12.3752 11.6 12 11.6ZM12 4C9.87827 4 7.84344 4.59 6.34315 5.6402C4.84285 6.69041 4 8.11479 4 9.6C4 13.8 12 20 12 20C12 20 20 13.8 20 9.6C20 8.11479 19.1571 6.69041 17.6569 5.6402C16.1566 4.59 14.1217 4 12 4Z" fill="white"/>
</svg>
