<svg width="24" height="24" viewBox="0 0 24 24" fill="none" xmlns="http://www.w3.org/2000/svg">
<path d="M19.0667 20C17.1556 20 15.2927 19.5739 13.4782 18.7218C11.6631 17.8702 10.0557 16.7443 8.656 15.344C7.2557 13.9443 6.12978 12.3369 5.27822 10.5218C4.42607 8.70726 4 6.84444 4 4.93333C4 4.66667 4.08889 4.44444 4.26667 4.26667C4.44444 4.08889 4.66667 4 4.93333 4H8.53333C8.74074 4 8.92593 4.06667 9.08889 4.2C9.25185 4.33333 9.34815 4.5037 9.37778 4.71111L9.95556 7.82222C9.98519 8.02963 9.98163 8.21837 9.94489 8.38844C9.90756 8.55911 9.82222 8.71111 9.68889 8.84444L7.55556 11.0222C8.17778 12.0889 8.95556 13.0889 9.88889 14.0222C10.8222 14.9556 11.8519 15.763 12.9778 16.4444L15.0667 14.3556C15.2 14.2222 15.3742 14.1221 15.5893 14.0551C15.8039 13.9887 16.0148 13.9704 16.2222 14L19.2889 14.6222C19.4963 14.6667 19.6667 14.7665 19.8 14.9218C19.9333 15.0776 20 15.2593 20 15.4667V19.0667C20 19.3333 19.9111 19.5556 19.7333 19.7333C19.5556 19.9111 19.3333 20 19.0667 20Z" fill="white"/>
</svg>
