<svg width="38" height="38" viewBox="0 0 38 38" fill="none" xmlns="http://www.w3.org/2000/svg">
<path d="M34.834 19.1582C34.834 22.2899 33.9053 25.3512 32.1655 27.9551C30.4256 30.559 27.9527 32.5885 25.0594 33.7869C22.1661 34.9854 18.9824 35.2989 15.9109 34.688C12.8394 34.077 10.0181 32.569 7.80366 30.3546C5.58924 28.1401 4.0812 25.3188 3.47024 22.2473C2.85928 19.1758 3.17285 15.9921 4.37128 13.0988C5.56972 10.2055 7.59921 7.73259 10.2031 5.99273C12.807 4.25287 15.8683 3.32422 19 3.32422C21.0793 3.32422 23.1383 3.73378 25.0594 4.52951C26.9805 5.32524 28.726 6.49157 30.1963 7.96189C31.6666 9.43221 32.833 11.1777 33.6287 13.0988C34.4244 15.0199 34.834 17.0789 34.834 19.1582ZM27.898 10.3722C27.344 9.81822 25.476 10.7882 24.922 11.3422L21.508 14.7582L21.478 14.7482L11.934 12.1542C11.7254 12.1099 11.5093 12.1154 11.3032 12.1704C11.0971 12.2253 10.9069 12.328 10.748 12.4702L9.89199 13.3262C9.82761 13.3816 9.7782 13.4523 9.74832 13.5318C9.71844 13.6113 9.70904 13.697 9.72099 13.7811C9.73294 13.8651 9.76587 13.9449 9.81672 14.0129C9.86758 14.0809 9.93473 14.135 10.012 14.1702L16.36 17.6802L17.474 18.7942L14.53 21.7342C14.2293 22.0714 13.9763 22.4483 13.778 22.8542L11.62 22.2002C11.414 22.1503 11.199 22.1511 10.9935 22.2027C10.7879 22.2542 10.598 22.355 10.44 22.4962L10.176 22.7582C10.0429 22.8914 9.96808 23.0719 9.96808 23.2602C9.96808 23.4485 10.0429 23.6291 10.176 23.7622L11.728 25.3142L11.758 25.3422L12.932 26.5182L12.962 26.5482L14.512 28.1002C14.6454 28.2329 14.8259 28.3073 15.014 28.3073C15.2021 28.3073 15.3826 28.2329 15.516 28.1002L15.78 27.8362C15.9214 27.6783 16.0222 27.4884 16.0738 27.2828C16.1253 27.0772 16.1261 26.8622 16.076 26.6562L15.42 24.4962C15.8259 24.297 16.2027 24.0434 16.54 23.7422L19.48 20.8002L20.594 21.9122L24.1 28.2602C24.1352 28.3375 24.1893 28.4046 24.2574 28.4555C24.3254 28.5063 24.4051 28.5393 24.4891 28.5512C24.5732 28.5632 24.659 28.5538 24.7384 28.5239C24.8179 28.494 24.8886 28.4446 24.944 28.3802L25.8 27.5242C25.9425 27.3651 26.0454 27.1745 26.1004 26.9681C26.1553 26.7616 26.1606 26.5451 26.116 26.3362L23.524 16.7962L23.514 16.7642L26.928 13.3482C27.482 12.7942 28.452 10.9282 27.898 10.3722Z" fill="white"/>
</svg>
